<mxfile host="app.diagrams.net" agent="Mozilla/5.0 (Windows NT 10.0; Win64; x64) AppleWebKit/537.36 (KHTML, like Gecko) Chrome/131.0.0.0 Safari/537.36" version="24.9.2" pages="2">
  <diagram name="InsureTech" id="6PZ2vtmPN3kQEalATKpQ">
    <mxGraphModel dx="2571" dy="2100" grid="1" gridSize="10" guides="1" tooltips="1" connect="1" arrows="1" fold="1" page="1" pageScale="1" pageWidth="827" pageHeight="1169" math="0" shadow="0">
      <root>
        <mxCell id="0" />
        <mxCell id="1" parent="0" />
        <object placeholders="1" c4Name="InsureTech Prod" c4Type="SystemScopeBoundary" c4Application="Виртуальная машина" label="&lt;font style=&quot;font-size: 16px&quot;&gt;&lt;b&gt;&lt;div style=&quot;text-align: left&quot;&gt;%c4Name%&lt;/div&gt;&lt;/b&gt;&lt;/font&gt;&lt;div style=&quot;text-align: left&quot;&gt;[%c4Application%]&lt;/div&gt;" id="cjx5aV-6-LAYsp5GEIjO-1">
          <mxCell style="rounded=1;fontSize=11;whiteSpace=wrap;html=1;dashed=1;arcSize=20;fillColor=none;strokeColor=#666666;fontColor=#333333;labelBackgroundColor=none;align=left;verticalAlign=bottom;labelBorderColor=none;spacingTop=0;spacing=10;dashPattern=8 4;metaEdit=1;rotatable=0;perimeter=rectanglePerimeter;noLabel=0;labelPadding=0;allowArrows=0;connectable=0;expand=0;recursiveResize=0;editable=1;pointerEvents=0;absoluteArcSize=1;points=[[0.25,0,0],[0.5,0,0],[0.75,0,0],[1,0.25,0],[1,0.5,0],[1,0.75,0],[0.75,1,0],[0.5,1,0],[0.25,1,0],[0,0.75,0],[0,0.5,0],[0,0.25,0]];" parent="1" vertex="1">
            <mxGeometry x="400" y="130" width="1150" height="1300" as="geometry" />
          </mxCell>
        </object>
        <object placeholders="1" c4Type="core-db" c4Container="Container" c4Technology="PostgreSQL" c4Description="БД используется для хранения тарифов страховых компаний, а также заявок клиентов на страховые продукты" label="&lt;font style=&quot;font-size: 16px&quot;&gt;&lt;b&gt;%c4Type%&lt;/b&gt;&lt;/font&gt;&lt;div&gt;[%c4Container%:&amp;nbsp;%c4Technology%]&lt;/div&gt;&lt;br&gt;&lt;div&gt;&lt;font style=&quot;font-size: 11px&quot;&gt;&lt;font color=&quot;#E6E6E6&quot;&gt;%c4Description%&lt;/font&gt;&lt;/div&gt;" id="cjx5aV-6-LAYsp5GEIjO-2">
          <mxCell style="shape=cylinder3;size=5.9999511718749545;whiteSpace=wrap;html=1;boundedLbl=1;rounded=0;labelBackgroundColor=none;fillColor=#23A2D9;fontSize=12;fontColor=#ffffff;align=center;strokeColor=#0E7DAD;metaEdit=1;points=[[0.5,0,0],[1,0.25,0],[1,0.5,0],[1,0.75,0],[0.5,1,0],[0,0.75,0],[0,0.5,0],[0,0.25,0]];resizable=0;" parent="1" vertex="1">
            <mxGeometry x="590" y="680" width="240" height="120" as="geometry" />
          </mxCell>
        </object>
        <object placeholders="1" c4Name="core-app" c4Type="Container" c4Technology="Kotlin, SpringBoot" c4Description="Монолитное приложение:&#xa;• отображает данные о доступных страховых продуктах&#xa;• оформляет новые страховки&#xa;• отображает информацию о купленных страховках" label="&lt;font style=&quot;font-size: 16px&quot;&gt;&lt;b&gt;%c4Name%&lt;/b&gt;&lt;/font&gt;&lt;div&gt;[%c4Type%: %c4Technology%]&lt;/div&gt;&lt;br&gt;&lt;div&gt;&lt;font style=&quot;font-size: 11px&quot;&gt;&lt;font color=&quot;#E6E6E6&quot;&gt;%c4Description%&lt;/font&gt;&lt;/div&gt;" id="cjx5aV-6-LAYsp5GEIjO-3">
          <mxCell style="rounded=1;whiteSpace=wrap;html=1;fontSize=11;labelBackgroundColor=none;fillColor=#23A2D9;fontColor=#ffffff;align=center;arcSize=10;strokeColor=#0E7DAD;metaEdit=1;resizable=0;points=[[0.25,0,0],[0.5,0,0],[0.75,0,0],[1,0.25,0],[1,0.5,0],[1,0.75,0],[0.75,1,0],[0.5,1,0],[0.25,1,0],[0,0.75,0],[0,0.5,0],[0,0.25,0]];" parent="1" vertex="1">
            <mxGeometry x="490" y="430" width="240" height="120" as="geometry" />
          </mxCell>
        </object>
        <object placeholders="1" c4Type="InsureTech Web" c4Container="Container" c4Technology="JavaScript, React" c4Description="Веб-приложение InsureTech" label="&lt;font style=&quot;font-size: 16px&quot;&gt;&lt;b&gt;%c4Type%&lt;/b&gt;&lt;/font&gt;&lt;div&gt;[%c4Container%:&amp;nbsp;%c4Technology%]&lt;/div&gt;&lt;br&gt;&lt;div&gt;&lt;font style=&quot;font-size: 11px&quot;&gt;&lt;font color=&quot;#E6E6E6&quot;&gt;%c4Description%&lt;/font&gt;&lt;/div&gt;" id="cjx5aV-6-LAYsp5GEIjO-4">
          <mxCell style="shape=mxgraph.c4.webBrowserContainer2;whiteSpace=wrap;html=1;boundedLbl=1;rounded=0;labelBackgroundColor=none;strokeColor=#118ACD;fillColor=#23A2D9;strokeColor=#118ACD;strokeColor2=#0E7DAD;fontSize=12;fontColor=#ffffff;align=center;metaEdit=1;points=[[0.5,0,0],[1,0.25,0],[1,0.5,0],[1,0.75,0],[0.5,1,0],[0,0.75,0],[0,0.5,0],[0,0.25,0]];resizable=0;" parent="1" vertex="1">
            <mxGeometry x="490" y="160" width="240" height="160" as="geometry" />
          </mxCell>
        </object>
        <object placeholders="1" c4Type="Relationship" c4Technology="REST" c4Description="1. Получения тарифов&#xa;2. Создание заявок на страховки" label="&lt;div style=&quot;text-align: left&quot;&gt;&lt;div style=&quot;text-align: center&quot;&gt;&lt;b&gt;%c4Description%&lt;/b&gt;&lt;/div&gt;&lt;div style=&quot;text-align: center&quot;&gt;[%c4Technology%]&lt;/div&gt;&lt;/div&gt;" id="cjx5aV-6-LAYsp5GEIjO-5">
          <mxCell style="endArrow=blockThin;html=1;fontSize=10;fontColor=#404040;strokeWidth=1;endFill=1;strokeColor=#828282;elbow=vertical;metaEdit=1;endSize=14;startSize=14;jumpStyle=arc;jumpSize=16;rounded=0;edgeStyle=orthogonalEdgeStyle;" parent="1" source="cjx5aV-6-LAYsp5GEIjO-4" target="cjx5aV-6-LAYsp5GEIjO-3" edge="1">
            <mxGeometry width="240" relative="1" as="geometry">
              <mxPoint x="550" y="290" as="sourcePoint" />
              <mxPoint x="790" y="290" as="targetPoint" />
              <Array as="points">
                <mxPoint x="610" y="160" />
              </Array>
            </mxGeometry>
          </mxCell>
        </object>
        <object placeholders="1" c4Type="Relationship" c4Technology="TCP" c4Description="Работа с данными" label="&lt;div style=&quot;text-align: left&quot;&gt;&lt;div style=&quot;text-align: center&quot;&gt;&lt;b&gt;%c4Description%&lt;/b&gt;&lt;/div&gt;&lt;div style=&quot;text-align: center&quot;&gt;[%c4Technology%]&lt;/div&gt;&lt;/div&gt;" id="cjx5aV-6-LAYsp5GEIjO-6">
          <mxCell style="endArrow=blockThin;html=1;fontSize=10;fontColor=#404040;strokeWidth=1;endFill=1;strokeColor=#828282;elbow=vertical;metaEdit=1;endSize=14;startSize=14;jumpStyle=arc;jumpSize=16;rounded=0;edgeStyle=orthogonalEdgeStyle;" parent="1" source="cjx5aV-6-LAYsp5GEIjO-3" target="cjx5aV-6-LAYsp5GEIjO-2" edge="1">
            <mxGeometry width="240" relative="1" as="geometry">
              <mxPoint x="600" y="600" as="sourcePoint" />
              <mxPoint x="840" y="600" as="targetPoint" />
            </mxGeometry>
          </mxCell>
        </object>
        <object placeholders="1" c4Name="Системы партнеров" c4Type="Software System" c4Description="Системы партнеров, интегрирующие страховые услуги в свои продукты" label="&lt;font style=&quot;font-size: 16px&quot;&gt;&lt;b&gt;%c4Name%&lt;/b&gt;&lt;/font&gt;&lt;div&gt;[%c4Type%]&lt;/div&gt;&lt;br&gt;&lt;div&gt;&lt;font style=&quot;font-size: 11px&quot;&gt;&lt;font color=&quot;#cccccc&quot;&gt;%c4Description%&lt;/font&gt;&lt;/div&gt;" id="cjx5aV-6-LAYsp5GEIjO-7">
          <mxCell style="rounded=1;whiteSpace=wrap;html=1;labelBackgroundColor=none;fillColor=#8C8496;fontColor=#ffffff;align=center;arcSize=10;strokeColor=#736782;metaEdit=1;resizable=0;points=[[0.25,0,0],[0.5,0,0],[0.75,0,0],[1,0.25,0],[1,0.5,0],[1,0.75,0],[0.75,1,0],[0.5,1,0],[0.25,1,0],[0,0.75,0],[0,0.5,0],[0,0.25,0]];" parent="1" vertex="1">
            <mxGeometry x="40" y="515" width="240" height="120" as="geometry" />
          </mxCell>
        </object>
        <object placeholders="1" c4Name="Системы партнеров" c4Type="Software System" c4Description="Системы партнеров, интегрирующие страховые услуги в свои продукты" label="&lt;font style=&quot;font-size: 16px&quot;&gt;&lt;b&gt;%c4Name%&lt;/b&gt;&lt;/font&gt;&lt;div&gt;[%c4Type%]&lt;/div&gt;&lt;br&gt;&lt;div&gt;&lt;font style=&quot;font-size: 11px&quot;&gt;&lt;font color=&quot;#cccccc&quot;&gt;%c4Description%&lt;/font&gt;&lt;/div&gt;" id="cjx5aV-6-LAYsp5GEIjO-8">
          <mxCell style="rounded=1;whiteSpace=wrap;html=1;labelBackgroundColor=none;fillColor=#8C8496;fontColor=#ffffff;align=center;arcSize=10;strokeColor=#736782;metaEdit=1;resizable=0;points=[[0.25,0,0],[0.5,0,0],[0.75,0,0],[1,0.25,0],[1,0.5,0],[1,0.75,0],[0.75,1,0],[0.5,1,0],[0.25,1,0],[0,0.75,0],[0,0.5,0],[0,0.25,0]];" parent="1" vertex="1">
            <mxGeometry x="50" y="525" width="240" height="120" as="geometry" />
          </mxCell>
        </object>
        <object placeholders="1" c4Name="Системы партнёров" c4Type="Software System" c4Description="Системы партнёров, интегрирующие страховые услуги в свои продукты" label="&lt;font style=&quot;font-size: 16px&quot;&gt;&lt;b&gt;%c4Name%&lt;/b&gt;&lt;/font&gt;&lt;div&gt;[%c4Type%]&lt;/div&gt;&lt;br&gt;&lt;div&gt;&lt;font style=&quot;font-size: 11px&quot;&gt;&lt;font color=&quot;#cccccc&quot;&gt;%c4Description%&lt;/font&gt;&lt;/div&gt;" id="cjx5aV-6-LAYsp5GEIjO-9">
          <mxCell style="rounded=1;whiteSpace=wrap;html=1;labelBackgroundColor=none;fillColor=#8C8496;fontColor=#ffffff;align=center;arcSize=10;strokeColor=#736782;metaEdit=1;resizable=0;points=[[0.25,0,0],[0.5,0,0],[0.75,0,0],[1,0.25,0],[1,0.5,0],[1,0.75,0],[0.75,1,0],[0.5,1,0],[0.25,1,0],[0,0.75,0],[0,0.5,0],[0,0.25,0]];" parent="1" vertex="1">
            <mxGeometry x="60" y="535" width="240" height="120" as="geometry" />
          </mxCell>
        </object>
        <object placeholders="1" c4Type="Relationship" c4Technology="REST" c4Description="Оформление страховок" label="&lt;div style=&quot;text-align: left&quot;&gt;&lt;div style=&quot;text-align: center&quot;&gt;&lt;b&gt;%c4Description%&lt;/b&gt;&lt;/div&gt;&lt;div style=&quot;text-align: center&quot;&gt;[%c4Technology%]&lt;/div&gt;&lt;/div&gt;" id="cjx5aV-6-LAYsp5GEIjO-10">
          <mxCell style="endArrow=blockThin;html=1;fontSize=10;fontColor=#404040;strokeWidth=1;endFill=1;strokeColor=#828282;elbow=vertical;metaEdit=1;endSize=14;startSize=14;jumpStyle=arc;jumpSize=16;rounded=0;edgeStyle=orthogonalEdgeStyle;" parent="1" source="cjx5aV-6-LAYsp5GEIjO-9" target="cjx5aV-6-LAYsp5GEIjO-3" edge="1">
            <mxGeometry x="-0.2075" width="240" relative="1" as="geometry">
              <mxPoint x="50" y="415" as="sourcePoint" />
              <mxPoint x="490" y="595" as="targetPoint" />
              <Array as="points">
                <mxPoint x="370" y="595" />
                <mxPoint x="370" y="520" />
              </Array>
              <mxPoint as="offset" />
            </mxGeometry>
          </mxCell>
        </object>
        <object placeholders="1" c4Name="Системы страховых компаний" c4Type="Software System" c4Description="Системы страховых компаний, предоставляющие API для получения актуальных тарифов, андерайтинга и оформления страховых продуктов" label="&lt;font style=&quot;font-size: 16px&quot;&gt;&lt;b&gt;%c4Name%&lt;/b&gt;&lt;/font&gt;&lt;div&gt;[%c4Type%]&lt;/div&gt;&lt;br&gt;&lt;div&gt;&lt;font style=&quot;font-size: 11px&quot;&gt;&lt;font color=&quot;#cccccc&quot;&gt;%c4Description%&lt;/font&gt;&lt;/div&gt;" id="cjx5aV-6-LAYsp5GEIjO-11">
          <mxCell style="rounded=1;whiteSpace=wrap;html=1;labelBackgroundColor=none;fillColor=#8C8496;fontColor=#ffffff;align=center;arcSize=10;strokeColor=#736782;metaEdit=1;resizable=0;points=[[0.25,0,0],[0.5,0,0],[0.75,0,0],[1,0.25,0],[1,0.5,0],[1,0.75,0],[0.75,1,0],[0.5,1,0],[0.25,1,0],[0,0.75,0],[0,0.5,0],[0,0.25,0]];" parent="1" vertex="1">
            <mxGeometry x="1620" y="540" width="240" height="120" as="geometry" />
          </mxCell>
        </object>
        <object placeholders="1" c4Name="Системы страховых компаний" c4Type="Software System" c4Description="Системы страховых компаний, предоставляющие API для получения актуальных тарифов, андерайтинга и оформления страховых продуктов" label="&lt;font style=&quot;font-size: 16px&quot;&gt;&lt;b&gt;%c4Name%&lt;/b&gt;&lt;/font&gt;&lt;div&gt;[%c4Type%]&lt;/div&gt;&lt;br&gt;&lt;div&gt;&lt;font style=&quot;font-size: 11px&quot;&gt;&lt;font color=&quot;#cccccc&quot;&gt;%c4Description%&lt;/font&gt;&lt;/div&gt;" id="cjx5aV-6-LAYsp5GEIjO-12">
          <mxCell style="rounded=1;whiteSpace=wrap;html=1;labelBackgroundColor=none;fillColor=#8C8496;fontColor=#ffffff;align=center;arcSize=10;strokeColor=#736782;metaEdit=1;resizable=0;points=[[0.25,0,0],[0.5,0,0],[0.75,0,0],[1,0.25,0],[1,0.5,0],[1,0.75,0],[0.75,1,0],[0.5,1,0],[0.25,1,0],[0,0.75,0],[0,0.5,0],[0,0.25,0]];" parent="1" vertex="1">
            <mxGeometry x="1630" y="550" width="240" height="120" as="geometry" />
          </mxCell>
        </object>
        <object placeholders="1" c4Name="Системы страховых компаний" c4Type="Software System" c4Description="Предоставляют API для получения актуальных тарифов, андерайтинга и оформления страховых продуктов" label="&lt;font style=&quot;font-size: 16px&quot;&gt;&lt;b&gt;%c4Name%&lt;/b&gt;&lt;/font&gt;&lt;div&gt;[%c4Type%]&lt;/div&gt;&lt;br&gt;&lt;div&gt;&lt;font style=&quot;font-size: 11px&quot;&gt;&lt;font color=&quot;#cccccc&quot;&gt;%c4Description%&lt;/font&gt;&lt;/div&gt;" id="cjx5aV-6-LAYsp5GEIjO-13">
          <mxCell style="rounded=1;whiteSpace=wrap;html=1;labelBackgroundColor=none;fillColor=#8C8496;fontColor=#ffffff;align=center;arcSize=9;strokeColor=#736782;metaEdit=1;resizable=0;points=[[0.25,0,0],[0.5,0,0],[0.75,0,0],[1,0.25,0],[1,0.5,0],[1,0.75,0],[0.75,1,0],[0.5,1,0],[0.25,1,0],[0,0.75,0],[0,0.5,0],[0,0.25,0]];" parent="1" vertex="1">
            <mxGeometry x="1640" y="560" width="240" height="120" as="geometry" />
          </mxCell>
        </object>
        <object placeholders="1" c4Name="ins-product-aggregator" c4Type="Container" c4Technology="Kotlin, SpringBoot" c4Description="Сервис для интеграции со страховыми компаниями с целью получения информации по страховым продуктам. Предоставляет единый API для core-app" label="&lt;font style=&quot;font-size: 16px&quot;&gt;&lt;b&gt;%c4Name%&lt;/b&gt;&lt;/font&gt;&lt;div&gt;[%c4Type%: %c4Technology%]&lt;/div&gt;&lt;br&gt;&lt;div&gt;&lt;font style=&quot;font-size: 11px&quot;&gt;&lt;font color=&quot;#E6E6E6&quot;&gt;%c4Description%&lt;/font&gt;&lt;/div&gt;" id="cjx5aV-6-LAYsp5GEIjO-14">
          <mxCell style="rounded=1;whiteSpace=wrap;html=1;fontSize=11;labelBackgroundColor=none;fillColor=#23A2D9;fontColor=#ffffff;align=center;arcSize=10;strokeColor=#0E7DAD;metaEdit=1;resizable=0;points=[[0.25,0,0],[0.5,0,0],[0.75,0,0],[1,0.25,0],[1,0.5,0],[1,0.75,0],[0.75,1,0],[0.5,1,0],[0.25,1,0],[0,0.75,0],[0,0.5,0],[0,0.25,0]];" parent="1" vertex="1">
            <mxGeometry x="1060" y="430" width="240" height="120" as="geometry" />
          </mxCell>
        </object>
        <object placeholders="1" c4Type="Relationship" c4Technology="REST / SOAP / GraphQL" c4Description="Получение информации &#xa;по продуктам и тарифам" label="&lt;div style=&quot;text-align: left&quot;&gt;&lt;div style=&quot;text-align: center&quot;&gt;&lt;b&gt;%c4Description%&lt;/b&gt;&lt;/div&gt;&lt;div style=&quot;text-align: center&quot;&gt;[%c4Technology%]&lt;/div&gt;&lt;/div&gt;" id="cjx5aV-6-LAYsp5GEIjO-15">
          <mxCell style="endArrow=blockThin;html=1;fontSize=10;fontColor=#404040;strokeWidth=1;endFill=1;strokeColor=#828282;elbow=vertical;metaEdit=1;endSize=14;startSize=14;jumpStyle=arc;jumpSize=16;rounded=0;edgeStyle=orthogonalEdgeStyle;" parent="1" source="cjx5aV-6-LAYsp5GEIjO-14" target="cjx5aV-6-LAYsp5GEIjO-11" edge="1">
            <mxGeometry x="-0.2143" width="240" relative="1" as="geometry">
              <mxPoint x="870" y="390" as="sourcePoint" />
              <mxPoint x="1110" y="390" as="targetPoint" />
              <mxPoint as="offset" />
              <Array as="points">
                <mxPoint x="1460" y="490" />
                <mxPoint x="1460" y="580" />
              </Array>
            </mxGeometry>
          </mxCell>
        </object>
        <object placeholders="1" c4Name="ins-comp-settlement" c4Type="Container" c4Technology="Kotlin, SpringBoot" c4Description="Сервис для осуществления взаиморасчётов со страховыми компаниями" label="&lt;font style=&quot;font-size: 16px&quot;&gt;&lt;b&gt;%c4Name%&lt;/b&gt;&lt;/font&gt;&lt;div&gt;[%c4Type%: %c4Technology%]&lt;/div&gt;&lt;br&gt;&lt;div&gt;&lt;font style=&quot;font-size: 11px&quot;&gt;&lt;font color=&quot;#E6E6E6&quot;&gt;%c4Description%&lt;/font&gt;&lt;/div&gt;" id="cjx5aV-6-LAYsp5GEIjO-17">
          <mxCell style="rounded=1;whiteSpace=wrap;html=1;fontSize=11;labelBackgroundColor=none;fillColor=#23A2D9;fontColor=#ffffff;align=center;arcSize=10;strokeColor=#0E7DAD;metaEdit=1;resizable=0;points=[[0.25,0,0],[0.5,0,0],[0.75,0,0],[1,0.25,0],[1,0.5,0],[1,0.75,0],[0.75,1,0],[0.5,1,0],[0.25,1,0],[0,0.75,0],[0,0.5,0],[0,0.25,0]];" parent="1" vertex="1">
            <mxGeometry x="1060" y="670" width="240" height="120" as="geometry" />
          </mxCell>
        </object>
        <object placeholders="1" c4Name="Клиент" c4Type="Person" c4Description="Клиент" label="&lt;font style=&quot;font-size: 16px&quot;&gt;&lt;b&gt;%c4Name%&lt;/b&gt;&lt;/font&gt;&lt;div&gt;[%c4Type%]&lt;/div&gt;&lt;br&gt;&lt;div&gt;&lt;font style=&quot;font-size: 11px&quot;&gt;&lt;font color=&quot;#cccccc&quot;&gt;%c4Description%&lt;/font&gt;&lt;/div&gt;" id="cjx5aV-6-LAYsp5GEIjO-18">
          <mxCell style="html=1;fontSize=11;dashed=0;whiteSpace=wrap;fillColor=#083F75;strokeColor=#06315C;fontColor=#ffffff;shape=mxgraph.c4.person2;align=center;metaEdit=1;points=[[0.5,0,0],[1,0.5,0],[1,0.75,0],[0.75,1,0],[0.5,1,0],[0.25,1,0],[0,0.75,0],[0,0.5,0]];resizable=0;" parent="1" vertex="1">
            <mxGeometry x="510" y="-80" width="200" height="180" as="geometry" />
          </mxCell>
        </object>
        <object placeholders="1" c4Type="Relationship" id="cjx5aV-6-LAYsp5GEIjO-19">
          <mxCell style="endArrow=blockThin;html=1;fontSize=10;fontColor=#404040;strokeWidth=1;endFill=1;strokeColor=#828282;elbow=vertical;metaEdit=1;endSize=14;startSize=14;jumpStyle=arc;jumpSize=16;rounded=0;edgeStyle=orthogonalEdgeStyle;" parent="1" source="cjx5aV-6-LAYsp5GEIjO-18" target="cjx5aV-6-LAYsp5GEIjO-4" edge="1">
            <mxGeometry width="240" relative="1" as="geometry">
              <mxPoint x="650" y="10" as="sourcePoint" />
              <mxPoint x="890" y="10" as="targetPoint" />
            </mxGeometry>
          </mxCell>
        </object>
        <object placeholders="1" c4Type="ins-comp-settlement-db" c4Container="Container" c4Technology="PostgreSQL" c4Description="БД используется для хранения данных об оформленных страховках и условиях взаиморасчётов с клиентами" label="&lt;font style=&quot;font-size: 16px&quot;&gt;&lt;b&gt;%c4Type%&lt;/b&gt;&lt;/font&gt;&lt;div&gt;[%c4Container%:&amp;nbsp;%c4Technology%]&lt;/div&gt;&lt;br&gt;&lt;div&gt;&lt;font style=&quot;font-size: 11px&quot;&gt;&lt;font color=&quot;#E6E6E6&quot;&gt;%c4Description%&lt;/font&gt;&lt;/div&gt;" id="cjx5aV-6-LAYsp5GEIjO-20">
          <mxCell style="shape=cylinder3;size=8.50981588924617;whiteSpace=wrap;html=1;boundedLbl=1;rounded=0;labelBackgroundColor=none;fillColor=#23A2D9;fontSize=12;fontColor=#ffffff;align=center;strokeColor=#0E7DAD;metaEdit=1;points=[[0.5,0,0],[1,0.25,0],[1,0.5,0],[1,0.75,0],[0.5,1,0],[0,0.75,0],[0,0.5,0],[0,0.25,0]];resizable=0;" parent="1" vertex="1">
            <mxGeometry x="1060" y="910" width="240" height="120" as="geometry" />
          </mxCell>
        </object>
        <object placeholders="1" c4Type="Relationship" c4Technology="TCP" c4Description="Работа с данными" label="&lt;div style=&quot;text-align: left&quot;&gt;&lt;div style=&quot;text-align: center&quot;&gt;&lt;b&gt;%c4Description%&lt;/b&gt;&lt;/div&gt;&lt;div style=&quot;text-align: center&quot;&gt;[%c4Technology%]&lt;/div&gt;&lt;/div&gt;" id="cjx5aV-6-LAYsp5GEIjO-21">
          <mxCell style="endArrow=blockThin;html=1;fontSize=10;fontColor=#404040;strokeWidth=1;endFill=1;strokeColor=#828282;elbow=vertical;metaEdit=1;endSize=14;startSize=14;jumpStyle=arc;jumpSize=16;rounded=0;edgeStyle=orthogonalEdgeStyle;" parent="1" source="cjx5aV-6-LAYsp5GEIjO-17" target="cjx5aV-6-LAYsp5GEIjO-20" edge="1">
            <mxGeometry width="240" relative="1" as="geometry">
              <mxPoint x="740" y="800" as="sourcePoint" />
              <mxPoint x="740" y="920" as="targetPoint" />
            </mxGeometry>
          </mxCell>
        </object>
        <object placeholders="1" c4Type="Relationship" c4Technology="REST / SOAP / GraphQL" c4Description="Передача данных для взаиморасчётов" label="&lt;div style=&quot;text-align: left&quot;&gt;&lt;div style=&quot;text-align: center&quot;&gt;&lt;b&gt;%c4Description%&lt;/b&gt;&lt;/div&gt;&lt;div style=&quot;text-align: center&quot;&gt;[%c4Technology%]&lt;/div&gt;&lt;/div&gt;" id="cjx5aV-6-LAYsp5GEIjO-22">
          <mxCell style="endArrow=blockThin;html=1;fontSize=10;fontColor=#404040;strokeWidth=1;endFill=1;strokeColor=#828282;elbow=vertical;metaEdit=1;endSize=14;startSize=14;jumpStyle=arc;jumpSize=16;rounded=0;edgeStyle=orthogonalEdgeStyle;entryX=0;entryY=0.795;entryDx=0;entryDy=0;entryPerimeter=0;" parent="1" source="cjx5aV-6-LAYsp5GEIjO-17" target="cjx5aV-6-LAYsp5GEIjO-11" edge="1">
            <mxGeometry x="-0.2207" width="240" relative="1" as="geometry">
              <mxPoint x="1160" y="500" as="sourcePoint" />
              <mxPoint x="1350" y="590" as="targetPoint" />
              <mxPoint as="offset" />
              <Array as="points">
                <mxPoint x="1460" y="730" />
                <mxPoint x="1460" y="635" />
              </Array>
            </mxGeometry>
          </mxCell>
        </object>
        <object placeholders="1" c4Type="Relationship" c4Technology="" c4Description="Получение информации &#xa;по продуктам и тарифам" label="&lt;div style=&quot;text-align: left&quot;&gt;&lt;div style=&quot;text-align: center&quot;&gt;&lt;b&gt;%c4Description%&lt;/b&gt;&lt;/div&gt;&lt;div style=&quot;text-align: center&quot;&gt;[%c4Technology%]&lt;/div&gt;&lt;/div&gt;" id="cjx5aV-6-LAYsp5GEIjO-23">
          <mxCell style="endArrow=blockThin;html=1;fontSize=10;fontColor=#404040;strokeWidth=1;endFill=1;strokeColor=#828282;elbow=vertical;metaEdit=1;endSize=14;startSize=14;jumpStyle=arc;jumpSize=16;rounded=0;edgeStyle=orthogonalEdgeStyle;entryX=0;entryY=0;entryDx=0;entryDy=15;entryPerimeter=0;exitX=1.012;exitY=0.098;exitDx=0;exitDy=0;exitPerimeter=0;" parent="1" source="cjx5aV-6-LAYsp5GEIjO-17" target="cjx5aV-6-LAYsp5GEIjO-33" edge="1">
            <mxGeometry x="-0.5303" y="40" width="240" relative="1" as="geometry">
              <mxPoint x="890" y="470" as="sourcePoint" />
              <mxPoint x="1070" y="470" as="targetPoint" />
              <mxPoint as="offset" />
              <Array as="points">
                <mxPoint x="1303" y="680" />
                <mxPoint x="1380" y="680" />
                <mxPoint x="1380" y="310" />
                <mxPoint x="1195" y="310" />
              </Array>
            </mxGeometry>
          </mxCell>
        </object>
        <object placeholders="1" c4Type="Relationship" c4Technology="" c4Description="Получение информации &#xa;об оформленных страховках" label="&lt;div style=&quot;text-align: left&quot;&gt;&lt;div style=&quot;text-align: center&quot;&gt;&lt;b&gt;%c4Description%&lt;/b&gt;&lt;/div&gt;&lt;div style=&quot;text-align: center&quot;&gt;[%c4Technology%]&lt;/div&gt;&lt;/div&gt;" id="cjx5aV-6-LAYsp5GEIjO-24">
          <mxCell style="endArrow=blockThin;html=1;fontSize=10;fontColor=#404040;strokeWidth=1;endFill=1;strokeColor=#828282;elbow=vertical;metaEdit=1;endSize=14;startSize=14;jumpStyle=arc;jumpSize=16;rounded=0;edgeStyle=orthogonalEdgeStyle;entryX=0.5;entryY=0;entryDx=0;entryDy=0;entryPerimeter=0;" parent="1" source="cjx5aV-6-LAYsp5GEIjO-17" target="cjx5aV-6-LAYsp5GEIjO-34" edge="1">
            <mxGeometry width="240" relative="1" as="geometry">
              <mxPoint x="740" y="470" as="sourcePoint" />
              <mxPoint x="980" y="620" as="targetPoint" />
              <mxPoint x="-1" as="offset" />
              <Array as="points">
                <mxPoint x="940" y="730" />
                <mxPoint x="940" y="580" />
              </Array>
            </mxGeometry>
          </mxCell>
        </object>
        <object placeholders="1" c4Name="Платёжный сервис" c4Type="Software System" c4Description="Внешний платёжный сервис, через который осуществляется оплата страховок. Деньги уходят на счета страховых компаний" label="&lt;font style=&quot;font-size: 16px&quot;&gt;&lt;b&gt;%c4Name%&lt;/b&gt;&lt;/font&gt;&lt;div&gt;[%c4Type%]&lt;/div&gt;&lt;br&gt;&lt;div&gt;&lt;font style=&quot;font-size: 11px&quot;&gt;&lt;font color=&quot;#cccccc&quot;&gt;%c4Description%&lt;/font&gt;&lt;/div&gt;" id="cjx5aV-6-LAYsp5GEIjO-25">
          <mxCell style="rounded=1;whiteSpace=wrap;html=1;labelBackgroundColor=none;fillColor=#8C8496;fontColor=#ffffff;align=center;arcSize=10;strokeColor=#736782;metaEdit=1;resizable=0;points=[[0.25,0,0],[0.5,0,0],[0.75,0,0],[1,0.25,0],[1,0.5,0],[1,0.75,0],[0.75,1,0],[0.5,1,0],[0.25,1,0],[0,0.75,0],[0,0.5,0],[0,0.25,0]];" parent="1" vertex="1">
            <mxGeometry x="40" y="320" width="240" height="120" as="geometry" />
          </mxCell>
        </object>
        <object placeholders="1" c4Type="Relationship" c4Technology="HTTP" c4Description="Проведение оплаты &#xa;за страховки" label="&lt;div style=&quot;text-align: left&quot;&gt;&lt;div style=&quot;text-align: center&quot;&gt;&lt;b&gt;%c4Description%&lt;/b&gt;&lt;/div&gt;&lt;div style=&quot;text-align: center&quot;&gt;[%c4Technology%]&lt;/div&gt;&lt;/div&gt;" id="cjx5aV-6-LAYsp5GEIjO-26">
          <mxCell style="endArrow=blockThin;html=1;fontSize=10;fontColor=#404040;strokeWidth=1;endFill=1;strokeColor=#828282;elbow=vertical;metaEdit=1;endSize=14;startSize=14;jumpStyle=arc;jumpSize=16;rounded=0;edgeStyle=orthogonalEdgeStyle;" parent="1" source="cjx5aV-6-LAYsp5GEIjO-3" target="cjx5aV-6-LAYsp5GEIjO-25" edge="1">
            <mxGeometry x="0.1034" width="240" relative="1" as="geometry">
              <mxPoint x="310" y="605" as="sourcePoint" />
              <mxPoint x="500" y="530" as="targetPoint" />
              <Array as="points">
                <mxPoint x="370" y="460" />
                <mxPoint x="370" y="380" />
              </Array>
              <mxPoint as="offset" />
            </mxGeometry>
          </mxCell>
        </object>
        <object placeholders="1" c4Type="Relationship" c4Technology="HTTP" c4Description="Проведение оплаты &#xa;за страховки (redirect)" label="&lt;div style=&quot;text-align: left&quot;&gt;&lt;div style=&quot;text-align: center&quot;&gt;&lt;b&gt;%c4Description%&lt;/b&gt;&lt;/div&gt;&lt;div style=&quot;text-align: center&quot;&gt;[%c4Technology%]&lt;/div&gt;&lt;/div&gt;" id="cjx5aV-6-LAYsp5GEIjO-27">
          <mxCell style="endArrow=blockThin;html=1;fontSize=10;fontColor=#404040;strokeWidth=1;endFill=1;strokeColor=#828282;elbow=vertical;metaEdit=1;endSize=14;startSize=14;jumpStyle=arc;jumpSize=16;rounded=0;edgeStyle=orthogonalEdgeStyle;" parent="1" source="cjx5aV-6-LAYsp5GEIjO-4" target="cjx5aV-6-LAYsp5GEIjO-25" edge="1">
            <mxGeometry x="0.1034" width="240" relative="1" as="geometry">
              <mxPoint x="500" y="470" as="sourcePoint" />
              <mxPoint x="290" y="390" as="targetPoint" />
              <Array as="points">
                <mxPoint x="140" y="230" />
              </Array>
              <mxPoint as="offset" />
            </mxGeometry>
          </mxCell>
        </object>
        <object placeholders="1" c4Name="client-info" c4Type="Container" c4Technology="Kotlin, SpringBoot" c4Description="Сервис для учёта клиентских данных" label="&lt;font style=&quot;font-size: 16px&quot;&gt;&lt;b&gt;%c4Name%&lt;/b&gt;&lt;/font&gt;&lt;div&gt;[%c4Type%: %c4Technology%]&lt;/div&gt;&lt;br&gt;&lt;div&gt;&lt;font style=&quot;font-size: 11px&quot;&gt;&lt;font color=&quot;#E6E6E6&quot;&gt;%c4Description%&lt;/font&gt;&lt;/div&gt;" id="cjx5aV-6-LAYsp5GEIjO-28">
          <mxCell style="rounded=1;whiteSpace=wrap;html=1;fontSize=11;labelBackgroundColor=none;fillColor=#23A2D9;fontColor=#ffffff;align=center;arcSize=10;strokeColor=#0E7DAD;metaEdit=1;resizable=0;points=[[0.25,0,0],[0.5,0,0],[0.75,0,0],[1,0.25,0],[1,0.5,0],[1,0.75,0],[0.75,1,0],[0.5,1,0],[0.25,1,0],[0,0.75,0],[0,0.5,0],[0,0.25,0]];" parent="1" vertex="1">
            <mxGeometry x="910" y="180" width="240" height="120" as="geometry" />
          </mxCell>
        </object>
        <object placeholders="1" c4Type="ins-comp-settlement-db" c4Container="Container" c4Technology="PostgreSQL" c4Description="БД используется для хранения данных клиентов: ФИО, телефон, паспорт и др. Информация необходима для оформления страховок" label="&lt;font style=&quot;font-size: 16px&quot;&gt;&lt;b&gt;%c4Type%&lt;/b&gt;&lt;/font&gt;&lt;div&gt;[%c4Container%:&amp;nbsp;%c4Technology%]&lt;/div&gt;&lt;br&gt;&lt;div&gt;&lt;font style=&quot;font-size: 11px&quot;&gt;&lt;font color=&quot;#E6E6E6&quot;&gt;%c4Description%&lt;/font&gt;&lt;/div&gt;" id="cjx5aV-6-LAYsp5GEIjO-29">
          <mxCell style="shape=cylinder3;size=6.172056136592715;whiteSpace=wrap;html=1;boundedLbl=1;rounded=0;labelBackgroundColor=none;fillColor=#23A2D9;fontSize=12;fontColor=#ffffff;align=center;strokeColor=#0E7DAD;metaEdit=1;points=[[0.5,0,0],[1,0.25,0],[1,0.5,0],[1,0.75,0],[0.5,1,0],[0,0.75,0],[0,0.5,0],[0,0.25,0]];resizable=0;" parent="1" vertex="1">
            <mxGeometry x="1290" y="180" width="240" height="120" as="geometry" />
          </mxCell>
        </object>
        <object placeholders="1" c4Type="Relationship" c4Technology="TCP" c4Description="Работа с данными" label="&lt;div style=&quot;text-align: left&quot;&gt;&lt;div style=&quot;text-align: center&quot;&gt;&lt;b&gt;%c4Description%&lt;/b&gt;&lt;/div&gt;&lt;div style=&quot;text-align: center&quot;&gt;[%c4Technology%]&lt;/div&gt;&lt;/div&gt;" id="cjx5aV-6-LAYsp5GEIjO-30">
          <mxCell style="endArrow=blockThin;html=1;fontSize=10;fontColor=#404040;strokeWidth=1;endFill=1;strokeColor=#828282;elbow=vertical;metaEdit=1;endSize=14;startSize=14;jumpStyle=arc;jumpSize=16;rounded=0;edgeStyle=orthogonalEdgeStyle;" parent="1" source="cjx5aV-6-LAYsp5GEIjO-28" target="cjx5aV-6-LAYsp5GEIjO-29" edge="1">
            <mxGeometry x="-0.1429" width="240" relative="1" as="geometry">
              <mxPoint x="1040" y="800" as="sourcePoint" />
              <mxPoint x="1040" y="920" as="targetPoint" />
              <mxPoint as="offset" />
            </mxGeometry>
          </mxCell>
        </object>
        <object placeholders="1" c4Type="Relationship" c4Technology="REST" c4Description="Получение/сохранение информации о клиентах" label="&lt;div style=&quot;text-align: left&quot;&gt;&lt;div style=&quot;text-align: center&quot;&gt;&lt;b&gt;%c4Description%&lt;/b&gt;&lt;/div&gt;&lt;div style=&quot;text-align: center&quot;&gt;[%c4Technology%]&lt;/div&gt;&lt;/div&gt;" id="cjx5aV-6-LAYsp5GEIjO-31">
          <mxCell style="endArrow=blockThin;html=1;fontSize=10;fontColor=#404040;strokeWidth=1;endFill=1;strokeColor=#828282;elbow=vertical;metaEdit=1;endSize=14;startSize=14;jumpStyle=arc;jumpSize=16;rounded=0;edgeStyle=orthogonalEdgeStyle;" parent="1" source="cjx5aV-6-LAYsp5GEIjO-3" target="cjx5aV-6-LAYsp5GEIjO-28" edge="1">
            <mxGeometry width="240" relative="1" as="geometry">
              <mxPoint x="740" y="500" as="sourcePoint" />
              <mxPoint x="920" y="500" as="targetPoint" />
              <mxPoint x="-1" as="offset" />
              <Array as="points">
                <mxPoint x="830" y="450" />
                <mxPoint x="830" y="280" />
              </Array>
            </mxGeometry>
          </mxCell>
        </object>
        <object placeholders="1" c4Type="Relationship" c4Technology="REST" c4Description="Получение/сохранение&#xa; информации о клиентах" label="&lt;div style=&quot;text-align: left&quot;&gt;&lt;div style=&quot;text-align: center&quot;&gt;&lt;b&gt;%c4Description%&lt;/b&gt;&lt;/div&gt;&lt;div style=&quot;text-align: center&quot;&gt;[%c4Technology%]&lt;/div&gt;&lt;/div&gt;" id="cjx5aV-6-LAYsp5GEIjO-32">
          <mxCell style="endArrow=blockThin;html=1;fontSize=10;fontColor=#404040;strokeWidth=1;endFill=1;strokeColor=#828282;elbow=vertical;metaEdit=1;endSize=14;startSize=14;jumpStyle=arc;jumpSize=16;rounded=0;edgeStyle=orthogonalEdgeStyle;" parent="1" source="cjx5aV-6-LAYsp5GEIjO-4" target="cjx5aV-6-LAYsp5GEIjO-28" edge="1">
            <mxGeometry width="240" relative="1" as="geometry">
              <mxPoint x="740" y="460" as="sourcePoint" />
              <mxPoint x="920" y="290" as="targetPoint" />
              <mxPoint x="-1" as="offset" />
              <Array as="points">
                <mxPoint x="820" y="220" />
                <mxPoint x="820" y="220" />
              </Array>
            </mxGeometry>
          </mxCell>
        </object>
        <mxCell id="cjx5aV-6-LAYsp5GEIjO-33" value="products&lt;br&gt;topic" style="shape=cylinder3;whiteSpace=wrap;html=1;boundedLbl=1;backgroundOutline=1;size=15;rotation=90;" parent="1" vertex="1">
          <mxGeometry x="1140" y="320" width="60" height="80" as="geometry" />
        </mxCell>
        <mxCell id="cjx5aV-6-LAYsp5GEIjO-34" value="policies&lt;br&gt;topic" style="shape=cylinder3;whiteSpace=wrap;html=1;boundedLbl=1;backgroundOutline=1;size=15;rotation=90;" parent="1" vertex="1">
          <mxGeometry x="850" y="540" width="60" height="80" as="geometry" />
        </mxCell>
        <mxCell id="cjx5aV-6-LAYsp5GEIjO-35" style="edgeStyle=orthogonalEdgeStyle;rounded=0;orthogonalLoop=1;jettySize=auto;html=1;entryX=0.5;entryY=0;entryDx=0;entryDy=0;entryPerimeter=0;" parent="1" target="cjx5aV-6-LAYsp5GEIjO-33" edge="1">
          <mxGeometry relative="1" as="geometry">
            <mxPoint x="1240" y="430" as="sourcePoint" />
            <Array as="points">
              <mxPoint x="1240" y="410" />
              <mxPoint x="1230" y="410" />
              <mxPoint x="1230" y="360" />
            </Array>
          </mxGeometry>
        </mxCell>
        <mxCell id="cjx5aV-6-LAYsp5GEIjO-36" value="Публикация информации&amp;nbsp;&lt;br&gt;по продуктам и тарифам" style="edgeLabel;html=1;align=center;verticalAlign=middle;resizable=0;points=[];" parent="cjx5aV-6-LAYsp5GEIjO-35" vertex="1" connectable="0">
          <mxGeometry x="-0.0533" y="4" relative="1" as="geometry">
            <mxPoint x="64" y="8" as="offset" />
          </mxGeometry>
        </mxCell>
        <mxCell id="cjx5aV-6-LAYsp5GEIjO-37" value="&lt;div&gt;Получение информации&amp;nbsp;&lt;/div&gt;&lt;div&gt;по продуктам и тарифам&lt;/div&gt;" style="edgeStyle=orthogonalEdgeStyle;rounded=0;orthogonalLoop=1;jettySize=auto;html=1;entryX=0.5;entryY=1;entryDx=0;entryDy=0;entryPerimeter=0;" parent="1" source="cjx5aV-6-LAYsp5GEIjO-3" target="cjx5aV-6-LAYsp5GEIjO-33" edge="1">
          <mxGeometry relative="1" as="geometry">
            <Array as="points">
              <mxPoint x="970" y="490" />
              <mxPoint x="970" y="360" />
            </Array>
          </mxGeometry>
        </mxCell>
        <mxCell id="cjx5aV-6-LAYsp5GEIjO-38" style="edgeStyle=orthogonalEdgeStyle;rounded=0;orthogonalLoop=1;jettySize=auto;html=1;entryX=0.5;entryY=1;entryDx=0;entryDy=0;entryPerimeter=0;exitX=0.75;exitY=1;exitDx=0;exitDy=0;exitPerimeter=0;" parent="1" source="cjx5aV-6-LAYsp5GEIjO-3" target="cjx5aV-6-LAYsp5GEIjO-34" edge="1">
          <mxGeometry relative="1" as="geometry" />
        </mxCell>
        <mxCell id="cjx5aV-6-LAYsp5GEIjO-39" value="&lt;div&gt;Публикация информации&amp;nbsp;&lt;/div&gt;&lt;div&gt;об оформленных страховках&lt;/div&gt;" style="edgeLabel;html=1;align=center;verticalAlign=middle;resizable=0;points=[];" parent="cjx5aV-6-LAYsp5GEIjO-38" vertex="1" connectable="0">
          <mxGeometry x="-0.1763" relative="1" as="geometry">
            <mxPoint x="18" y="20" as="offset" />
          </mxGeometry>
        </mxCell>
        <object placeholders="1" c4Type="osago-aggregator-db" c4Container="Container" c4Technology="PostgreSQL" c4Description="" label="&lt;font style=&quot;font-size: 16px&quot;&gt;&lt;b&gt;%c4Type%&lt;/b&gt;&lt;/font&gt;&lt;div&gt;[%c4Container%:&amp;nbsp;%c4Technology%]&lt;/div&gt;&lt;br&gt;&lt;div&gt;&lt;font style=&quot;font-size: 11px&quot;&gt;&lt;font color=&quot;#E6E6E6&quot;&gt;%c4Description%&lt;/font&gt;&lt;/div&gt;" id="nOwYtle40-BHBwrcrHOK-1">
          <mxCell style="shape=cylinder3;size=8.50981588924617;whiteSpace=wrap;html=1;boundedLbl=1;rounded=0;labelBackgroundColor=none;fillColor=#23A2D9;fontSize=12;fontColor=#ffffff;align=center;strokeColor=#0E7DAD;metaEdit=1;points=[[0.5,0,0],[1,0.25,0],[1,0.5,0],[1,0.75,0],[0.5,1,0],[0,0.75,0],[0,0.5,0],[0,0.25,0]];resizable=0;" vertex="1" parent="1">
            <mxGeometry x="530" y="1120" width="240" height="120" as="geometry" />
          </mxCell>
        </object>
        <object placeholders="1" c4Name="osago-aggregator" c4Type="Container" c4Technology="Kotlin, SpringBoot" c4Description="" label="&lt;font style=&quot;font-size: 16px&quot;&gt;&lt;b&gt;%c4Name%&lt;/b&gt;&lt;/font&gt;&lt;div&gt;[%c4Type%: %c4Technology%]&lt;/div&gt;&lt;br&gt;&lt;div&gt;&lt;font style=&quot;font-size: 11px&quot;&gt;&lt;font color=&quot;#E6E6E6&quot;&gt;%c4Description%&lt;/font&gt;&lt;/div&gt;" id="nOwYtle40-BHBwrcrHOK-2">
          <mxCell style="rounded=1;whiteSpace=wrap;html=1;fontSize=11;labelBackgroundColor=none;fillColor=#23A2D9;fontColor=#ffffff;align=center;arcSize=10;strokeColor=#0E7DAD;metaEdit=1;resizable=0;points=[[0.25,0,0],[0.5,0,0],[0.75,0,0],[1,0.25,0],[1,0.5,0],[1,0.75,0],[0.75,1,0],[0.5,1,0],[0.25,1,0],[0,0.75,0],[0,0.5,0],[0,0.25,0]];" vertex="1" parent="1">
            <mxGeometry x="530" y="920" width="240" height="120" as="geometry" />
          </mxCell>
        </object>
        <object placeholders="1" c4Type="Relationship" c4Technology="TCP" c4Description="Работа с данными" label="&lt;div style=&quot;text-align: left&quot;&gt;&lt;div style=&quot;text-align: center&quot;&gt;&lt;b&gt;%c4Description%&lt;/b&gt;&lt;/div&gt;&lt;div style=&quot;text-align: center&quot;&gt;[%c4Technology%]&lt;/div&gt;&lt;/div&gt;" id="nOwYtle40-BHBwrcrHOK-3">
          <mxCell style="endArrow=blockThin;html=1;fontSize=10;fontColor=#404040;strokeWidth=1;endFill=1;strokeColor=#828282;elbow=vertical;metaEdit=1;endSize=14;startSize=14;jumpStyle=arc;jumpSize=16;rounded=0;edgeStyle=orthogonalEdgeStyle;entryX=0.5;entryY=0;entryDx=0;entryDy=0;entryPerimeter=0;exitX=0.5;exitY=1;exitDx=0;exitDy=0;exitPerimeter=0;" edge="1" parent="1" source="nOwYtle40-BHBwrcrHOK-2" target="nOwYtle40-BHBwrcrHOK-1">
            <mxGeometry width="240" relative="1" as="geometry">
              <mxPoint x="640" y="1050" as="sourcePoint" />
              <mxPoint x="620" y="680" as="targetPoint" />
            </mxGeometry>
          </mxCell>
        </object>
        <object placeholders="1" c4Type="Relationship" c4Technology="REST" c4Description="1. Создать заявку на ОСАГО&#xa;2. Получить заявку" label="&lt;div style=&quot;text-align: left&quot;&gt;&lt;div style=&quot;text-align: center&quot;&gt;&lt;b&gt;%c4Description%&lt;/b&gt;&lt;/div&gt;&lt;div style=&quot;text-align: center&quot;&gt;[%c4Technology%]&lt;/div&gt;&lt;/div&gt;" id="nOwYtle40-BHBwrcrHOK-4">
          <mxCell style="endArrow=blockThin;html=1;fontSize=10;fontColor=#404040;strokeWidth=1;endFill=1;strokeColor=#828282;elbow=vertical;metaEdit=1;endSize=14;startSize=14;jumpStyle=arc;jumpSize=16;rounded=0;edgeStyle=orthogonalEdgeStyle;entryX=0.25;entryY=0;entryDx=0;entryDy=0;entryPerimeter=0;exitX=0.077;exitY=1.004;exitDx=0;exitDy=0;exitPerimeter=0;" edge="1" parent="1" source="cjx5aV-6-LAYsp5GEIjO-3" target="nOwYtle40-BHBwrcrHOK-2">
            <mxGeometry width="240" relative="1" as="geometry">
              <mxPoint x="570" y="610" as="sourcePoint" />
              <mxPoint x="620" y="440" as="targetPoint" />
              <Array as="points">
                <mxPoint x="509" y="620" />
                <mxPoint x="500" y="620" />
                <mxPoint x="500" y="880" />
                <mxPoint x="590" y="880" />
              </Array>
            </mxGeometry>
          </mxCell>
        </object>
        <object placeholders="1" c4Type="Relationship" c4Technology="REST" c4Description="1. Создать заявку&#xa;2. Получить заявку" label="&lt;div style=&quot;text-align: left&quot;&gt;&lt;div style=&quot;text-align: center&quot;&gt;&lt;b&gt;%c4Description%&lt;/b&gt;&lt;/div&gt;&lt;div style=&quot;text-align: center&quot;&gt;[%c4Technology%]&lt;/div&gt;&lt;/div&gt;" id="nOwYtle40-BHBwrcrHOK-5">
          <mxCell style="endArrow=blockThin;html=1;fontSize=10;fontColor=#404040;strokeWidth=1;endFill=1;strokeColor=#828282;elbow=vertical;metaEdit=1;endSize=14;startSize=14;jumpStyle=arc;jumpSize=16;rounded=0;edgeStyle=orthogonalEdgeStyle;entryX=0.5;entryY=1;entryDx=0;entryDy=0;entryPerimeter=0;exitX=0.993;exitY=0.619;exitDx=0;exitDy=0;exitPerimeter=0;" edge="1" parent="1" source="nOwYtle40-BHBwrcrHOK-2" target="cjx5aV-6-LAYsp5GEIjO-13">
            <mxGeometry width="240" relative="1" as="geometry">
              <mxPoint x="518" y="560" as="sourcePoint" />
              <mxPoint x="600" y="930" as="targetPoint" />
              <Array as="points">
                <mxPoint x="870" y="994" />
                <mxPoint x="870" y="1130" />
                <mxPoint x="1760" y="1130" />
              </Array>
            </mxGeometry>
          </mxCell>
        </object>
        <mxCell id="T3otOfH-JHl0gycsumP4-1" value="" style="aspect=fixed;sketch=0;html=1;dashed=0;whitespace=wrap;verticalLabelPosition=bottom;verticalAlign=top;fillColor=#2875E2;strokeColor=#ffffff;points=[[0.005,0.63,0],[0.1,0.2,0],[0.9,0.2,0],[0.5,0,0],[0.995,0.63,0],[0.72,0.99,0],[0.5,1,0],[0.28,0.99,0]];shape=mxgraph.kubernetes.icon2;prIcon=job" vertex="1" parent="1">
          <mxGeometry x="750" y="890" width="50" height="48" as="geometry" />
        </mxCell>
        <mxCell id="4ySFYmJUKCH_fpW-HDJL-1" value="" style="aspect=fixed;sketch=0;html=1;dashed=0;whitespace=wrap;verticalLabelPosition=bottom;verticalAlign=top;fillColor=#2875E2;strokeColor=#ffffff;points=[[0.005,0.63,0],[0.1,0.2,0],[0.9,0.2,0],[0.5,0,0],[0.995,0.63,0],[0.72,0.99,0],[0.5,1,0],[0.28,0.99,0]];shape=mxgraph.kubernetes.icon2;prIcon=deploy" vertex="1" parent="1">
          <mxGeometry x="650" y="890" width="50" height="48" as="geometry" />
        </mxCell>
        <mxCell id="4ySFYmJUKCH_fpW-HDJL-2" value="" style="aspect=fixed;sketch=0;html=1;dashed=0;whitespace=wrap;verticalLabelPosition=bottom;verticalAlign=top;fillColor=#2875E2;strokeColor=#ffffff;points=[[0.005,0.63,0],[0.1,0.2,0],[0.9,0.2,0],[0.5,0,0],[0.995,0.63,0],[0.72,0.99,0],[0.5,1,0],[0.28,0.99,0]];shape=mxgraph.kubernetes.icon2;prIcon=c_role" vertex="1" parent="1">
          <mxGeometry x="700" y="890" width="50" height="48" as="geometry" />
        </mxCell>
        <mxCell id="tF--fDctASUxg2C2AIak-1" value="" style="aspect=fixed;sketch=0;html=1;dashed=0;whitespace=wrap;verticalLabelPosition=bottom;verticalAlign=top;fillColor=#2875E2;strokeColor=#ffffff;points=[[0.005,0.63,0],[0.1,0.2,0],[0.9,0.2,0],[0.5,0,0],[0.995,0.63,0],[0.72,0.99,0],[0.5,1,0],[0.28,0.99,0]];shape=mxgraph.kubernetes.icon2;prIcon=quota" vertex="1" parent="1">
          <mxGeometry x="600" y="890" width="50" height="48" as="geometry" />
        </mxCell>
        <mxCell id="tF--fDctASUxg2C2AIak-2" value="&lt;li&gt;&lt;strong&gt;Rate Limiting:&amp;nbsp;&lt;/strong&gt;Чтобы избежать перегрузки страховых компаний, настроить лимит запросов для каждой компании (например, не более 10 запросов/сек).&lt;/li&gt;&lt;li&gt;&lt;strong&gt;Circuit Breaker:&amp;nbsp;&lt;/strong&gt;Отключать запросы к страховой компании, если подряд произошло несколько ошибок (например, 5 ошибок подряд).&lt;/li&gt;&lt;li&gt;&lt;strong&gt;Retry:&amp;nbsp;&lt;/strong&gt;Повторять запросы, если возникли временные ошибки (например, HTTP 5xx).&lt;/li&gt;&lt;li style=&quot;&quot;&gt;&lt;strong&gt;Timeout:&amp;nbsp;&lt;/strong&gt;Настроить таймауты (например, 10 секунд) для получения ответа от страховых компаний.&lt;/li&gt;" style="shape=note;strokeWidth=2;fontSize=14;size=20;whiteSpace=wrap;html=1;fillColor=#fff2cc;strokeColor=#d6b656;fontColor=#666600;align=left;" vertex="1" parent="1">
          <mxGeometry x="-230" y="915" width="740" height="130" as="geometry" />
        </mxCell>
        <mxCell id="0xlCC98aD1NnXK2lBnjK-1" value="" style="aspect=fixed;sketch=0;html=1;dashed=0;whitespace=wrap;verticalLabelPosition=bottom;verticalAlign=top;fillColor=#2875E2;strokeColor=#ffffff;points=[[0.005,0.63,0],[0.1,0.2,0],[0.9,0.2,0],[0.5,0,0],[0.995,0.63,0],[0.72,0.99,0],[0.5,1,0],[0.28,0.99,0]];shape=mxgraph.kubernetes.icon2;prIcon=deploy" vertex="1" parent="1">
          <mxGeometry x="700" y="400" width="50" height="48" as="geometry" />
        </mxCell>
        <mxCell id="0xlCC98aD1NnXK2lBnjK-2" value="" style="aspect=fixed;sketch=0;html=1;dashed=0;whitespace=wrap;verticalLabelPosition=bottom;verticalAlign=top;fillColor=#2875E2;strokeColor=#ffffff;points=[[0.005,0.63,0],[0.1,0.2,0],[0.9,0.2,0],[0.5,0,0],[0.995,0.63,0],[0.72,0.99,0],[0.5,1,0],[0.28,0.99,0]];shape=mxgraph.kubernetes.icon2;prIcon=quota" vertex="1" parent="1">
          <mxGeometry x="650" y="400" width="50" height="48" as="geometry" />
        </mxCell>
        <mxCell id="0xlCC98aD1NnXK2lBnjK-3" value="&lt;li&gt;&lt;/li&gt;&lt;li&gt;&lt;strong&gt;Retry:&amp;nbsp;&lt;/strong&gt;Повторять запросы к osago-aggregator при временных сбоях.&lt;/li&gt;&lt;li&gt;&lt;strong&gt;Timeout:&amp;nbsp;&lt;/strong&gt;Ограничить время ожидания ответа от osago-aggregator (например, 5 секунд).&lt;/li&gt;" style="shape=note;strokeWidth=2;fontSize=14;size=20;whiteSpace=wrap;html=1;fillColor=#fff2cc;strokeColor=#d6b656;fontColor=#666600;align=left;" vertex="1" parent="1">
          <mxGeometry x="-150" y="240" width="613" height="60" as="geometry" />
        </mxCell>
        <mxCell id="0xlCC98aD1NnXK2lBnjK-4" value="Оставить &lt;strong&gt;REST API&lt;/strong&gt; для взаимодействия веб-приложения с core-app. REST достаточно для отображения данных в реальном времени." style="shape=note;strokeWidth=2;fontSize=14;size=20;whiteSpace=wrap;html=1;fillColor=#fff2cc;strokeColor=#d6b656;fontColor=#666600;" vertex="1" parent="1">
          <mxGeometry x="590" y="260" width="260" height="80" as="geometry" />
        </mxCell>
        <mxCell id="0xlCC98aD1NnXK2lBnjK-5" value="&lt;li&gt;&lt;strong&gt;Проблема:&lt;/strong&gt; osago-aggregator задеплоен в нескольких экземплярах.&lt;/li&gt;&lt;li&gt;&lt;strong style=&quot;background-color: initial;&quot;&gt;Решение:&lt;/strong&gt;&lt;span style=&quot;background-color: initial;&quot;&gt; Использовать &lt;/span&gt;&lt;strong style=&quot;background-color: initial;&quot;&gt;брокер сообщений&lt;/strong&gt;&lt;span style=&quot;background-color: initial;&quot;&gt; (например, Kafka или RabbitMQ) для распределения событий между экземплярами. Это особенно важно для обработки событий от страховых компаний.&lt;/span&gt;&lt;/li&gt;" style="shape=note;strokeWidth=2;fontSize=14;size=20;whiteSpace=wrap;html=1;fillColor=#fff2cc;strokeColor=#d6b656;fontColor=#666600;" vertex="1" parent="1">
          <mxGeometry x="750" y="1040" width="488" height="80" as="geometry" />
        </mxCell>
      </root>
    </mxGraphModel>
  </diagram>
  <diagram id="t9Pq4utXN-jypJWDstD_" name="Страница — 2">
    <mxGraphModel dx="6932" dy="3260" grid="1" gridSize="10" guides="1" tooltips="1" connect="1" arrows="1" fold="1" page="1" pageScale="1" pageWidth="827" pageHeight="1169" math="0" shadow="0">
      <root>
        <mxCell id="0" />
        <mxCell id="1" parent="0" />
        <mxCell id="GaNATx-Mlzuh0iEDP3CA-1" value="" style="aspect=fixed;sketch=0;html=1;dashed=0;whitespace=wrap;verticalLabelPosition=bottom;verticalAlign=top;fillColor=#2875E2;strokeColor=#ffffff;points=[[0.005,0.63,0],[0.1,0.2,0],[0.9,0.2,0],[0.5,0,0],[0.995,0.63,0],[0.72,0.99,0],[0.5,1,0],[0.28,0.99,0]];shape=mxgraph.kubernetes.icon2;prIcon=deploy" vertex="1" parent="1">
          <mxGeometry x="-720" y="160" width="50" height="48" as="geometry" />
        </mxCell>
        <mxCell id="GaNATx-Mlzuh0iEDP3CA-2" value="" style="aspect=fixed;sketch=0;html=1;dashed=0;whitespace=wrap;verticalLabelPosition=bottom;verticalAlign=top;fillColor=#2875E2;strokeColor=#ffffff;points=[[0.005,0.63,0],[0.1,0.2,0],[0.9,0.2,0],[0.5,0,0],[0.995,0.63,0],[0.72,0.99,0],[0.5,1,0],[0.28,0.99,0]];shape=mxgraph.kubernetes.icon2;prIcon=quota" vertex="1" parent="1">
          <mxGeometry x="-720" y="100" width="50" height="48" as="geometry" />
        </mxCell>
        <mxCell id="GaNATx-Mlzuh0iEDP3CA-3" value="" style="aspect=fixed;sketch=0;html=1;dashed=0;whitespace=wrap;verticalLabelPosition=bottom;verticalAlign=top;fillColor=#2875E2;strokeColor=#ffffff;points=[[0.005,0.63,0],[0.1,0.2,0],[0.9,0.2,0],[0.5,0,0],[0.995,0.63,0],[0.72,0.99,0],[0.5,1,0],[0.28,0.99,0]];shape=mxgraph.kubernetes.icon2;prIcon=job" vertex="1" parent="1">
          <mxGeometry x="-720" y="220" width="50" height="48" as="geometry" />
        </mxCell>
        <mxCell id="GaNATx-Mlzuh0iEDP3CA-4" value="" style="aspect=fixed;sketch=0;html=1;dashed=0;whitespace=wrap;verticalLabelPosition=bottom;verticalAlign=top;fillColor=#2875E2;strokeColor=#ffffff;points=[[0.005,0.63,0],[0.1,0.2,0],[0.9,0.2,0],[0.5,0,0],[0.995,0.63,0],[0.72,0.99,0],[0.5,1,0],[0.28,0.99,0]];shape=mxgraph.kubernetes.icon2;prIcon=c_role" vertex="1" parent="1">
          <mxGeometry x="-719" y="280" width="50" height="48" as="geometry" />
        </mxCell>
        <mxCell id="GaNATx-Mlzuh0iEDP3CA-5" value="TimeOut" style="text;html=1;align=center;verticalAlign=middle;whiteSpace=wrap;rounded=0;" vertex="1" parent="1">
          <mxGeometry x="-669" y="111" width="60" height="30" as="geometry" />
        </mxCell>
        <mxCell id="GaNATx-Mlzuh0iEDP3CA-6" value="Retry" style="text;html=1;align=center;verticalAlign=middle;whiteSpace=wrap;rounded=0;" vertex="1" parent="1">
          <mxGeometry x="-669" y="169" width="60" height="30" as="geometry" />
        </mxCell>
        <mxCell id="GaNATx-Mlzuh0iEDP3CA-7" value="Rate Limiter" style="text;html=1;align=center;verticalAlign=middle;whiteSpace=wrap;rounded=0;" vertex="1" parent="1">
          <mxGeometry x="-670" y="230" width="60" height="30" as="geometry" />
        </mxCell>
        <mxCell id="GaNATx-Mlzuh0iEDP3CA-8" value="Circuit Breaker" style="text;html=1;align=center;verticalAlign=middle;whiteSpace=wrap;rounded=0;" vertex="1" parent="1">
          <mxGeometry x="-669" y="289" width="60" height="30" as="geometry" />
        </mxCell>
      </root>
    </mxGraphModel>
  </diagram>
</mxfile>
